<?xml version="1.0" encoding="UTF-8" standalone="no"?>
<!-- Created with Inkscape (http://www.inkscape.org/) -->
<svg xmlns:dc="http://purl.org/dc/elements/1.1/" xmlns:cc="http://creativecommons.org/ns#" xmlns:rdf="http://www.w3.org/1999/02/22-rdf-syntax-ns#" xmlns:svg="http://www.w3.org/2000/svg" xmlns="http://www.w3.org/2000/svg" xmlns:sodipodi="http://sodipodi.sourceforge.net/DTD/sodipodi-0.dtd" xmlns:inkscape="http://www.inkscape.org/namespaces/inkscape" width="300" height="300" viewBox="0 0 79.374998 79.375002" version="1.1" id="svg4884" inkscape:version="0.92.3 (2405546, 2018-03-11)" sodipodi:docname="Baikal.svg">
  <defs id="defs4878"/>
  <sodipodi:namedview id="base" pagecolor="#ffffff" bordercolor="#666666" borderopacity="1.0" inkscape:pageopacity="0.0" inkscape:pageshadow="2" inkscape:zoom="0.7" inkscape:cx="330.88703" inkscape:cy="256.33971" inkscape:document-units="px" inkscape:current-layer="layer1" showgrid="false" units="px" inkscape:window-width="1920" inkscape:window-height="1001" inkscape:window-x="-9" inkscape:window-y="-9" inkscape:window-maximized="1"/>
  <metadata id="metadata4881">
    <rdf:RDF>
      <cc:Work rdf:about="">
        <dc:format>image/svg+xml</dc:format>
        <dc:type rdf:resource="http://purl.org/dc/dcmitype/StillImage"/>
        <dc:title/>
      </cc:Work>
    </rdf:RDF>
  </metadata>
  <g inkscape:label="Layer 1" inkscape:groupmode="layer" id="layer1" transform="translate(0,-217.62499)">
    <path inkscape:connector-curvature="0" id="path950" d="m 74.901115,233.77974 0.840841,0.35891 0.193709,0.19352 -0.0012,0.003 -0.158147,0.003 -0.20835,0.14319 -0.131104,0.17591 -0.0048,0.17379 -0.13097,0.1591 -0.209657,0.13218 -0.132168,0.004 -0.213928,0.17593 -0.19429,0.21737 -0.130172,0.17593 0.143192,0.001 0.347451,0.002 0.120153,0.002 0.0012,0.11833 -0.0048,0.12016 -0.118338,0.004 -0.0036,0.004 -0.0024,0.23632 0.130172,0.12015 0.213299,0.003 0.264784,0.12016 -0.420499,0.13017 -0.21855,0.1078 -0.118338,0.15848 -0.0012,0.1759 -0.0024,0.19059 -0.190599,0.5883 -0.0036,0.003 -0.159914,0.004 -0.0012,0.003 -0.0036,0.20128 -0.224745,0.22663 -0.0036,0.14317 0.0036,0.004 0.144219,0.1078 0.143192,0.13217 0.0048,0.17432 -0.0024,0.21645 -0.132168,0.13018 -0.303481,0.19196 -0.378621,0.38304 -0.0048,0.14408 -0.0012,0.17593 0.0048,0.10923 0.143482,0.004 0.145382,0.15991 -0.157833,0.21742 0.107569,0.22919 0.190575,0.21879 0.120153,0.17592 -0.120153,0.21718 -0.448486,0.27191 -0.19677,0.2062 -0.0036,0.27193 0.143784,0.48979 -0.130172,0.24406 -0.448486,0.24794 -0.0012,0.004 -0.0036,0.002 -0.0036,10e-4 -0.0012,0.002 0.0012,0.10923 0.0036,0.003 0.0036,0.002 0.0012,0.001 0.0036,0.13136 0.0048,0.003 0.0012,0.003 -0.0048,0.13017 -0.131104,0.003 -0.302863,0.003 -0.131103,0.004 -0.119669,0.22262 0.0036,0.20921 0.132168,0.20599 0.0048,0.21741 -0.145394,0.50344 -0.408508,0.27846 -0.497806,0.21116 -0.405168,0.2953 -0.0036,0.11834 -0.130172,0.23439 0.0036,0.13044 0.0012,0.13096 v 0.25782 l 0.0012,0.003 0.0036,0.13018 0.0012,0.004 -0.0024,0.003 -0.132169,0.13216 -0.0036,0.22425 -0.131103,0.2266 -0.0012,0.14317 0.0024,0.004 0.0036,0.0808 0.0036,0.14422 0.0012,0.14539 -0.143191,0.24382 -0.157506,0.17591 -0.0036,0.17484 0.329326,0.51983 -0.0036,0.14406 -0.157494,0.13097 -0.175922,0.19369 -0.0012,0.2634 0.159914,0.19612 0.193515,0.19175 0.173962,0.38476 0.383098,0.45807 0.06776,0.20169 -0.0012,0.15994 -0.0036,0.13018 -0.193516,0.2174 -0.0024,0.001 -0.159925,0.002 -0.0024,0.001 -0.0024,0.003 -0.0036,0.15847 -0.120153,0.15992 -0.130438,0.27733 -0.0012,0.13044 -0.0024,0.14348 -0.119064,0.12015 -0.130172,0.004 -0.370623,0.31037 -2.124143,1.32809 -0.17591,0.24354 -0.132168,0.28906 -0.493353,0.43279 -0.132169,0.24406 0.0036,0.13164 0.213723,0.21306 0.0036,0.13217 -0.0024,0.13097 -0.196783,0.36156 -0.0048,0.0993 0.309131,0.34746 -0.0012,0.003 -0.143191,0.002 -0.144063,0.10791 -0.19654,0.19176 -0.0024,0.004 0.0012,0.003 -0.0012,0.001 -0.130172,10e-4 -0.0048,0.001 -0.17326,0.003 -0.145393,10e-4 -0.933721,-0.12015 -0.678641,-0.15849 -0.0036,-0.003 0.131104,-0.11943 0.552631,-0.32038 0.120153,-0.1307 0.0048,-0.34314 0.109263,-0.004 0.120153,-0.004 0.107811,-0.1442 -0.732522,-0.28392 0.0024,-0.002 0.132168,-0.003 0.0036,-0.14319 0.120153,-0.13216 0.263018,-0.001 v -0.0993 l -0.0036,-0.11834 0.0024,-0.002 0.131636,-0.002 -0.173248,-0.21307 -0.119064,-0.19657 -0.145381,-0.15991 -0.252104,-0.004 -0.159127,0.001 -0.47916,0.15991 -0.549897,-0.001 -0.144219,0.003 -1.163222,0.76517 -1.144067,1.14903 -0.159926,0.3847 -0.175909,0.23511 -0.403923,0.42043 -0.628425,0.39347 -0.118822,0.14537 -0.0048,0.17362 -0.193903,0.14348 -0.458057,0.19057 0.291235,0.14538 0.550961,-0.19654 0.945409,-0.48976 1.382909,-0.19655 0.717917,-0.21717 0.487764,0.002 0.382202,0.24745 0.591993,0.76433 0.159913,0.35357 0.130172,0.52206 -0.0024,0.4898 -0.223523,0.27415 -0.0012,0.003 -0.587746,0.19659 -1.678717,0.76764 -0.599289,0.13216 -0.323106,-0.002 -0.14422,-0.19654 -0.159914,-0.14318 -0.349823,0.003 -0.539321,0.20922 -2.482327,1.55914 -0.217171,0.003 -0.0024,10e-4 -0.510426,0.25782 -0.327281,0.003 -0.145382,0.004 -0.0899,0.004 0.0899,0.2306 0.0036,0.10758 0.120153,0.12015 0.14318,0.003 0.145393,10e-4 0.118338,0.003 0.0024,0.15993 -0.120153,0.19369 -0.218828,0.23012 -0.408448,0.34316 -0.429235,0.1937 -0.209645,0.14422 -0.08083,0.19615 -0.143482,0.15848 -1.940065,0.78723 -0.274186,0.003 -0.17591,0.15991 -0.24799,0.43239 -0.190756,0.15991 -0.501932,0.15848 -0.485162,0.31228 -0.268209,0.13217 -0.579783,0.17591 -0.0036,0.002 -0.130571,0.11834 -0.0048,0.002 -0.0048,10e-4 -0.159926,0.001 -0.223535,0.003 -0.369111,0.003 -1.98538,-0.002 -0.2836,0.003 -1.136819,0.34318 -0.283576,0.14539 -0.175014,0.0746 -0.400994,0.31163 -0.49581,0.21372 -2.235898,0.6024 -2.065107,0.80913 -0.485246,0.28474 -0.306917,0.37746 -0.390164,0.87403 -0.315859,0.32723 -0.503965,0.17325 -0.538813,-0.003 -0.918983,-0.48627 -0.485657,-0.19348 h -0.321824 l -0.327656,-0.10923 -0.17326,-0.001 -0.779022,0.003 -1.152429,0.4232 -0.173259,0.001 -0.315931,-0.001 -0.143192,0.001 -0.157506,0.13137 -0.682984,0.68304 -0.0048,0.003 -0.0048,0.002 -0.0036,0.003 -0.0024,0.15994 0.0012,0.004 0.130172,0.22471 0.08083,0.42315 0.28216,0.33695 0.0036,0.2292 -0.0036,0.17589 -0.132169,0.15993 -0.159925,0.14319 -0.157833,0.13217 -0.157505,-0.0978 -0.0012,0.003 -0.0012,0.002 -0.0012,0.001 -0.0012,0.002 0.0024,0.11882 -0.0024,0.13018 -0.118338,0.1307 -0.14422,0.004 -0.344161,0.37064 -0.175909,0.24355 0.0048,0.1311 0.145381,0.003 0.09934,0.13018 0.0036,0.15752 0.0012,0.14348 -0.0024,0.004 -0.130172,0.003 -0.257839,0.004 -0.571846,0.30819 -0.270193,0.21372 -0.0012,0.003 -0.0036,0.003 -0.130171,0.22469 -0.0036,0.003 -0.132169,10e-4 -0.244323,0.15928 -0.333827,0.25317 -0.939795,0.98195 -0.173235,0.12015 -0.193516,0.001 -0.34318,-0.003 -0.306965,0.004 -0.542636,0.20922 -0.629721,0.004 -3.698861,1.06187 -4.947545,0.81239 -0.627651,0.002 -0.257839,0.003 -1.59674,0.71046 -0.218816,0.003 -0.939819,-0.001 -0.950371,-0.14406 -1.249409,0.004 -1.238932,-0.17592 -1.2821757,-0.003 -0.607844,-0.0978 -0.824711,-0.28361 -0.577933,-0.004 -0.707511,-0.28934 -1.0001617,-0.1432 -0.501908,-0.31225 -0.2912349,-0.003 -0.6283651,-0.003 -0.2388661,-0.004 -0.5198402,-0.24925 -0.1732478,-0.13017 -0.2292224,-0.11882 -0.6175592,-0.19158 -0.1735987,-0.25862 0.2171466,-0.39597 0.7472712,-0.1575 1.4562713,-0.001 0.9555733,-0.21719 1.3772337,-0.004 1.594962,-0.28361 4.1688007,-0.004 0.269588,0.002 h 0.145381 l 0.175922,-0.002 0.143192,-0.004 0.252103,-0.20922 0.157494,-0.002 0.159938,-0.12015 0.333173,-0.41476 0.196589,-0.14539 0.723785,-0.004 1.483134,0.15751 0.710403,-0.004 1.058459,-0.37068 1.177451,-0.12003 0.405641,-0.0982 0.34969,-0.17589 0.213081,-0.23631 0.205978,-0.28938 0.253193,-0.24924 0.342853,-0.13216 0.196347,-0.002 0.39348,-0.17327 0.175922,-0.002 0.213069,-10e-4 0.251353,-0.003 0.17591,-0.004 -0.0012,-0.0891 0.263042,-0.11834 0.488755,-0.32311 0.26309,-0.003 0.159926,-0.003 0.625582,-0.41645 0.0048,-0.11834 0.159938,-0.21371 0.09934,-0.12015 0.441589,-0.36495 0.4148,-0.64654 0.190587,-0.19368 0.303456,-0.1745 0.107811,-0.004 0.365348,-0.43795 0.193684,-0.15752 0.408569,-0.25133 0.442025,-0.60781 0.361851,-0.37069 0.429211,-0.32797 0.469068,-0.2679 4.220807,-1.45615 0.801819,-0.17592 0.729001,-0.41642 0.206014,-0.003 0.14451,-0.004 0.774025,-0.52717 0.109263,-0.002 0.120153,-0.003 0.0048,-0.14319 0.0012,-0.10846 -0.0024,-0.004 -0.143191,-0.23411 0.399772,-0.004 0.522066,-0.39432 0.37746,-0.17591 0.552643,-0.15992 0.173272,-0.12015 0.201707,-0.1454 0.0048,-0.12016 0.130571,-0.33277 0.206003,-0.29534 0.283575,-0.23014 0.840866,-0.44253 0.145381,-0.002 0.0048,-0.003 -0.0012,-0.14537 -0.118338,-0.15815 -0.349714,-0.19428 -0.132168,-0.14319 -0.997851,0.28447 -0.378609,0.002 v -0.004 l 0.456231,-0.23013 0.238878,-0.17591 0.118338,-0.14539 0.0036,-0.14319 0.145381,-0.13017 0.173272,-0.12015 0.312894,-0.004 0.0048,-0.10758 0.0036,-0.14538 0.0048,-0.14408 0.248207,-0.15992 0.54375,-0.15782 0.223524,-0.14539 0.497854,-0.53877 0.190599,-0.15994 0.914046,-0.30505 0.2836,-0.27848 3.678376,-1.42918 0.190587,-0.14539 0.244093,-0.14319 0.559625,-0.14537 0.224722,-0.1752 0.0048,-0.14348 -0.0012,-0.003 -0.0024,-0.002 -0.0012,-0.004 v -0.42781 l 0.0024,-0.003 0.173247,-0.11918 0.428752,-0.7029 0.599881,-0.68322 0.209209,-0.14539 3.574558,-1.65087 0.14318,-0.15994 0.159925,-0.13216 0.907282,-0.24925 0.764345,-0.55956 0.510294,-0.17593 0.201707,-0.21307 0.143191,-0.26705 0.190781,-0.54988 0.0036,-0.12015 0.107569,-0.0987 0.233191,-0.13084 0.130172,-0.004 0.0036,-0.11834 0.0024,-0.13017 0.0036,-0.12015 0.108053,-0.002 0.0012,-0.004 0.193697,-0.40932 -0.0012,-0.14451 -0.0048,-0.2306 v -0.13018 l 0.0036,-0.12015 0.157505,-0.17592 0.0024,-0.12016 0.0036,-0.003 0.158801,-0.002 0.303177,-0.002 0.130704,-0.002 0.119669,-0.004 0.749777,-0.89546 0.0048,-0.13044 0.118338,-0.20923 0.0048,-0.0981 0.132168,-0.003 0.249248,-0.004 0.119064,-0.003 0.0024,-0.11834 0.0012,-0.26701 0.0012,-0.13044 0.222834,-0.37864 0.0036,-0.34415 0.0048,-0.23225 0.206196,-0.42052 0.312265,-0.35544 0.848875,-0.48926 0.382215,-0.28936 1.495947,-1.69596 0.0024,-0.004 0.0012,-0.13017 0.0012,-0.25312 0.0012,-0.13217 0.0036,-0.003 0.213057,-0.1432 0.0036,-0.003 0.0012,-0.14537 -0.0024,-0.004 -0.0024,-0.11858 -0.0012,-0.15993 0.109263,-0.1935 0.226621,-0.14481 0.253156,-0.13149 0.191361,-0.14539 0.118338,-0.17327 0.0036,-0.19371 0.132169,-0.1935 0.248243,-0.14319 -0.145381,-0.15977 -0.383074,-0.15991 -0.14422,-0.15865 0.36496,-0.11846 0.359999,-0.15815 0.325878,-0.19679 0.454488,-0.36798 0.196129,-0.11834 0.213286,-0.003 0.22425,-0.001 0.213686,-0.004 0.0024,-0.15994 -0.0036,-0.30189 0.145393,-0.31623 0.639013,-0.55772 0.205991,-0.3016 0.0048,-0.36796 0.0036,-0.65333 0.132168,-0.34313 -0.143179,-0.23411 0.0036,-0.23062 0.143179,-0.24435 0.119548,-0.26706 -0.0048,-0.19059 -0.173962,-0.2482 -0.132168,-0.23063 0.132168,-0.15847 v -0.004 l -0.0048,-0.001 -0.157989,-0.003 -0.109263,-0.001 0.0036,-0.15992 0.191748,-0.1906 0.0048,-0.14347 v -0.38029 l 0.0024,-0.19059 0.236289,-0.13111 0.295373,-0.2077 0.157663,-0.004 0.619629,-0.13017 0.465451,-0.26623 0.157506,-0.13017 0.0036,-0.17378 0.0036,-0.0897 0.506506,-0.19352 0.286842,-0.19592 0.5271,-0.44935 0.392645,-0.29094 0.470557,-0.15751 0.519877,-0.003 1.098801,0.004 1.271746,0.295 0.20622,-0.002 -0.523784,-0.23413 -0.631705,-0.17592 -0.659922,-0.11882 -0.607989,0.001 v -0.12015 l 2.134452,0.12015 0.213081,0.003 -0.0048,0.004 0.268766,0.002 0.201283,0.004 0.145382,0.1454 0.0024,0.26561 z m -24.89759,28.36354 0.249769,-0.82557 -0.0024,-0.27445 -0.523713,0.14349 -0.196141,0.14479 -0.558959,0.68298 -0.303468,0.23888 -1.60175,0.37749 -0.252115,0.15751 -0.274162,0.24067 -1.22723,0.32726 -0.409428,0.23014 -0.83617,0.14539 -0.214811,0.004 -0.519901,0.33353 -0.407661,-0.13216 -0.431499,0.1599 -0.436955,0.22686 -0.420401,0.14317 -0.508722,0.001 -0.226837,0.003 -0.200632,0.1588 -0.132167,0.13017 -0.157832,0.11858 -0.175923,0.0992 -0.17361,0.003 0.107569,0.001 0.120153,10e-4 0.226585,-10e-4 v 0.004 l -0.131104,0.001 -0.09934,0.003 -0.0048,0.004 -0.0036,0.10923 0.235115,-0.003 0.249236,-0.001 v 0.12171 l -0.132168,0.002 -0.120153,0.003 -0.109263,0.004 -0.119548,0.11858 0.370659,0.1448 0.587637,-0.11834 1.066155,-0.29127 3.355124,-0.40857 0.243827,-0.1307 0.193503,-0.17326 0.746389,-0.51039 0.711928,-0.29938 0.217425,-0.14539 0.199565,-0.17591 0.217413,-0.15992 0.235054,-0.1307 0.267047,-0.1078 1.058629,-0.13017 0.173248,-0.004 0.0024,-0.14319 0.157832,-0.2015 0.0036,-0.13057 0.0012,-0.14318 -0.0024,-0.004 -0.0024,-0.004 z" style="opacity:1;vector-effect:none;fill:#313131;fill-opacity:1;stroke-width:219.60386658;stroke-linecap:butt;stroke-linejoin:miter;stroke-miterlimit:4;stroke-dasharray:none;stroke-dashoffset:0;stroke-opacity:1"/>
  </g>
</svg>